<?xml version="1.0" encoding="iso-8859-1"?>
<!-- Generator: Adobe Illustrator 19.0.0, SVG Export Plug-In . SVG Version: 6.00 Build 0)  -->
<svg version="1.1" id="Capa_1" xmlns="http://www.w3.org/2000/svg" xmlns:xlink="http://www.w3.org/1999/xlink" x="0px" y="0px"
	 viewBox="0 0 375.467 375.467" style="enable-background:new 0 0 375.467 375.467;" xml:space="preserve">
<g>
	<circle style="fill:#00E7FF;" cx="81.92" cy="81.92" r="75.093"/>
	<path style="fill:#00E7FF;" d="M81.92,163.84C36.746,163.84,0,127.094,0,81.92S36.746,0,81.92,0s81.92,36.746,81.92,81.92
		S127.094,163.84,81.92,163.84z M81.92,13.653c-37.641,0-68.267,30.626-68.267,68.267s30.626,68.267,68.267,68.267
		s68.267-30.626,68.267-68.267S119.561,13.653,81.92,13.653z"/>
</g>
<path style="fill:#FFFFFF;" d="M337.435,269.36c19.642-9.419,31.205-26.622,31.205-57.733c0-79.176-74.882-143.36-167.253-143.36
	S34.133,132.451,34.133,211.627s74.882,68.267,167.253,68.267c27.022,0,52.545,0.934,75.136,0.273"/>
<path style="fill:#602F75;" d="M258.246,287.227c-8.639,0-17.599-0.119-26.853-0.241c-19.466-0.266-40.54-0.266-59.993,0
	c-54.226,0.734-101.06,1.36-125.846-23.1c-12.281-12.114-18.248-29.206-18.248-52.26c0-82.813,78.094-150.187,174.08-150.187
	s174.08,67.374,174.08,150.187c0,31.674-11.474,52.574-35.081,63.887c-3.42,1.647-7.48,0.193-9.107-3.2
	c-1.633-3.4-0.2-7.48,3.2-9.107c18.647-8.941,27.334-25.334,27.334-51.581c0-75.286-71.967-136.533-160.427-136.533
	S40.96,136.34,40.96,211.627c0,19.207,4.64,33.126,14.186,42.547c20.714,20.441,64.954,19.84,116.067,19.161
	c19.581-0.266,40.781-0.266,60.36,0c15.892,0.227,30.899,0.42,44.747,0.007c3.466-0.101,6.914,2.854,7.026,6.627
	c0.106,3.767-2.86,6.914-6.627,7.026C270.74,287.167,264.579,287.227,258.246,287.227z"/>
<path style="fill:#EA3457;" d="M43.095,165.344c11.027,7.642,24.392,12.15,38.825,12.15c37.702,0,68.267-30.565,68.267-68.267
	c0-11.465-2.859-22.252-7.854-31.739C95.807,92.546,59.201,124.867,43.095,165.344z"/>
<path style="fill:#602F75;" d="M81.92,184.32c-15.326,0-30.1-4.62-42.713-13.36c-2.613-1.812-3.633-5.187-2.454-8.141
	c16.927-42.554,54.647-76.02,103.48-91.827c3.154-1.021,6.593,0.374,8.141,3.313c5.652,10.742,8.639,22.815,8.639,34.922
	C157.013,150.634,123.327,184.32,81.92,184.32z M51.64,162.666c9.226,5.248,19.586,8.001,30.28,8.001
	c33.881,0,61.44-27.559,61.44-61.44c0-8.093-1.546-15.906-4.599-23.299C98.567,100.427,67.28,127.993,51.64,162.666z"/>
<path style="fill:#EA3457;" d="M260.441,77.488c-4.995,9.487-7.854,20.273-7.854,31.739c0,37.702,30.565,68.267,68.267,68.267
	c14.433,0,27.798-4.507,38.825-12.15C343.572,124.867,306.966,92.546,260.441,77.488z"/>
<path style="fill:#602F75;" d="M320.853,184.32c-41.407,0-75.093-33.686-75.093-75.093c0-12.107,2.987-24.18,8.639-34.92
	c1.546-2.941,4.987-4.333,8.141-3.313c48.833,15.807,86.554,49.273,103.48,91.827c1.179,2.953,0.16,6.327-2.454,8.141
	C350.954,179.7,336.179,184.32,320.853,184.32z M264.013,85.927c-3.053,7.393-4.599,15.206-4.599,23.299
	c0,33.881,27.559,61.44,61.44,61.44c10.694,0,21.053-2.753,30.28-8.001C335.493,127.993,304.207,100.427,264.013,85.927z"/>
<circle style="fill:#EA3457;" cx="201.387" cy="187.733" r="51.2"/>
<path style="fill:#602F75;" d="M201.387,245.76c-31.993,0-58.027-26.033-58.027-58.027s26.033-58.027,58.027-58.027
	s58.027,26.033,58.027,58.027S233.38,245.76,201.387,245.76z M201.387,143.36c-24.467,0-44.373,19.907-44.373,44.373
	s19.907,44.373,44.373,44.373s44.373-19.907,44.373-44.373S225.853,143.36,201.387,143.36z"/>
<path style="fill:#FFE600;" d="M274.935,368.64H127.836c-10.278,0-18.611-8.332-18.611-18.611V266.24h184.32v83.789
	C293.547,360.308,285.215,368.64,274.935,368.64z"/>
<g>
	<path style="fill:#602F75;" d="M274.934,375.467H127.84c-14.027,0-25.44-11.414-25.44-25.44V266.24
		c0-3.773,3.053-6.827,6.827-6.827h184.32c3.773,0,6.827,3.053,6.827,6.827v83.787C300.373,364.052,288.959,375.467,274.934,375.467
		z M116.053,273.067v76.96c0,6.501,5.287,11.786,11.786,11.786h147.094c6.501,0,11.786-5.287,11.786-11.786v-76.96H116.053z"/>
	<path style="fill:#602F75;" d="M232.107,314.027c-3.773,0-6.827-3.053-6.827-6.827v-20.48c0-3.773,3.053-6.827,6.827-6.827
		s6.827,3.053,6.827,6.827v20.48C238.933,310.973,235.88,314.027,232.107,314.027z"/>
	<path style="fill:#602F75;" d="M170.667,314.027c-3.773,0-6.827-3.053-6.827-6.827v-20.48c0-3.773,3.053-6.827,6.827-6.827
		s6.827,3.053,6.827,6.827v20.48C177.493,310.973,174.44,314.027,170.667,314.027z"/>
</g>
<g>
</g>
<g>
</g>
<g>
</g>
<g>
</g>
<g>
</g>
<g>
</g>
<g>
</g>
<g>
</g>
<g>
</g>
<g>
</g>
<g>
</g>
<g>
</g>
<g>
</g>
<g>
</g>
<g>
</g>
</svg>
